<svg width="24" height="24" viewBox="0 0 24 24" fill="none" xmlns="http://www.w3.org/2000/svg">
<circle cx="12" cy="12" r="11" fill="#4A18E3" stroke="#161326" stroke-width="2"/>
<path d="M7.92279 15.7912C7.96181 15.9154 8.07768 16 8.20878 16H15.7912C15.9223 16 16.0382 15.9154 16.0772 15.7912L17.9859 9.71627C18.0607 9.47812 17.8245 9.25995 17.5904 9.3511L14.424 10.5844C14.2759 10.6421 14.1083 10.5749 14.0421 10.4313L12.454 6.98538C12.2754 6.59773 11.7244 6.59775 11.5458 6.98539L9.95788 10.4313C9.89173 10.5749 9.72405 10.6421 9.57598 10.5844L6.40955 9.3511C6.17553 9.25995 5.93927 9.47812 6.0141 9.71627L7.92279 15.7912Z" fill="#F4F2FF"/>
</svg>