<!-- svg icons -->
<svg xmlns="http://www.w3.org/2000/svg" style="display: none;">

	<symbol id="window-control_close" viewBox="0 0 30 30">
		<path d="M15.71,15l4.15-4.15a.5.5,0,0,0-.71-.71L15,14.29l-4.15-4.15a.5.5,0,1,0-.71.71L14.29,15l-4.15,4.15a.5.5,0,1,0,.71.71L15,15.71l4.15,4.15a.5.5,0,1,0,.71-.71Z"/>
	</symbol>
	
	<symbol id="external-link" viewBox="0 0 32 32">
		<path d="M17 8C16.4477 8 16 8.44772 16 9C16 9.55228 16.4477 10 17 10H20.5858L15.2929 15.2929C14.9024 15.6834 14.9024 16.3166 15.2929 16.7071C15.6834 17.0976 16.3166 17.0976 16.7071 16.7071L22 11.4142V15C22 15.5523 22.4477 16 23 16C23.5523 16 24 15.5523 24 15V9C24 8.44772 23.5523 8 23 8H17Z" />
		<path d="M9 10C8.44772 10 8 10.4477 8 11V23C8 23.5523 8.44772 24 9 24H21C21.5523 24 22 23.5521 22 22.9998V19H20V22H10V12H13V10H9Z" />
	</symbol>

	<symbol id="alert-icon" viewBox="0 0 24 24" fill="none">
		<path fill-rule="evenodd" clip-rule="evenodd" d="M12.8384 3.49213C12.4623 2.83596 11.5377 2.83596 11.1616 3.49213L3.13577 17.4956C2.75435 18.1611 3.22186 19 3.97412 19H20.0259C20.7781 19 21.2456 18.1611 20.8642 17.4956L12.8384 3.49213ZM11.0274 8.01901H12.9726V13.0104H11.0274V8.01901ZM12.9726 15.0069H11.0274V17.0035H12.9726V15.0069Z" fill="#E07000"/>
	</symbol>


	<symbol id="success-illustration" viewBox="0 0 160 160">
		<path d="M56.224 22.6426C54.7013 22.31 53.1485 22.3249 51.792 22.5143C51.069 22.6152 50.3101 22.8234 49.5586 23.1162C49.9481 18.7546 52.6752 10 52.6752 10C52.6752 10 55.468 18.2965 56.224 22.6426Z" fill="#B2A1E6"/>
		<path d="M107.566 37.2442C107.991 37.1405 108.409 37.0626 108.811 37.0119C110.498 36.799 112.214 37.0689 113.776 37.7073C113.686 32.8454 112.711 25.5896 112.711 25.5896C112.711 25.5896 109.17 32.6787 107.566 37.2442Z" fill="#B2A1E6"/>
		<path d="M110.813 39.8024C106.948 39.3519 103.425 42.0551 102.857 45.8846L99.9995 67.4985V76.25C99.9995 81.6241 95.9454 86 90.4995 86C86.8703 86 83.7844 83.925 82.1808 80.9428C81.4457 81.4038 80.6668 81.7894 80.6668 81.7894C80.7797 84.6946 79.5446 88.2248 77.3267 90.025C80.826 93.1368 83.8015 97.9014 83.8015 105C83.8015 105.829 83.13 106.5 82.3015 106.5C81.4731 106.5 80.8015 105.829 80.8015 105C80.8015 98.341 77.8199 94.186 74.509 91.5766C74.1811 91.6873 73.8432 91.7807 73.4958 91.8556L57.686 95.5793L56.9982 92.6592L72.8436 88.9271C76.2866 88.1961 78.3761 84.7484 77.5408 81.4038L77.5386 81.3951L77.5367 81.3863C76.8062 77.9389 73.3617 75.8484 70.0219 76.6842L70.0109 76.6869L51.8227 80.1178L51.8235 80.125L49.0816 80.8099C46.3139 81.5013 44.6848 84.3605 45.5201 87.0882C47.5409 93.6875 50.958 104.627 51.8235 106.031C53.9829 109.635 56.1443 112 60.8041 112H96.0374C102.516 112 107.971 107.269 108.88 100.849L116.95 47.5741C117.405 43.8572 114.677 40.3656 110.813 39.8024Z" fill="#6C5C99"/>
		<path d="M51.4694 76.9808L63.9989 74.7251V61.75C63.9989 60.811 64.1343 59.9072 64.3859 59.0541L60.6157 31.2305C60.1611 27.401 56.5989 24.597 52.7346 25.0475C48.8703 25.4981 46.0289 28.8771 46.4836 32.7066L51.4694 76.9808Z" fill="#6C5C99"/>
		<path d="M66.9989 74.185L69.3232 73.7666C73.6716 72.6936 78.1319 74.9459 79.8959 78.9695C80.5976 77.9137 80.999 76.6414 80.999 75.25V61.75C80.999 58.0375 77.849 55 73.999 55C70.149 55 66.999 58.0375 66.999 61.75L66.9989 74.185Z" fill="#6C5C99"/>
		<path d="M90.4995 83C86.9245 83 83.9995 79.9625 83.9995 76.25V62.75C83.9995 59.0375 86.9245 56 90.4995 56C94.0745 56 96.9995 59.0375 96.9995 62.75V76.25C96.9995 80.075 94.1828 83 90.4995 83Z" fill="#6C5C99"/>
		<path d="M96.2045 126.106L96.2022 126.101C96.1971 126.089 96.193 126.08 96.1896 126.071C96.1946 126.083 96.1996 126.094 96.2045 126.106Z" fill="#403366"/>
		<path fill-rule="evenodd" clip-rule="evenodd" d="M61.9254 116.226V115H99.3405C99.99 117.317 101.815 123.058 104.551 125.544C105.139 126.079 105.203 127.089 104.441 127.317C103.464 127.608 102.287 127.725 101.192 127.42C101.839 129.095 102.633 130.551 103.578 131.511C104.136 132.078 104.173 133.053 103.405 133.26C102.117 133.608 100.361 133.86 99 133.5V149C99 149.669 98.4259 150.174 97.8455 149.841C94.9644 148.191 93.1966 144.224 92.8942 142.336C90.5402 144.996 91.4878 147.844 92.7368 150.391C93.0809 151.092 92.5442 151.883 91.8003 151.643C87.4315 150.239 85.4737 145.035 85.016 142.336C83.848 149.113 81.1061 151.501 78.8131 151.981C78.0363 152.144 77.7278 151.235 78.2088 150.603C81.5163 146.261 79.1143 142.607 75.4771 143.06C72.8071 143.822 73.6146 146.896 74.3768 148.9C74.6388 149.588 74.1184 150.296 73.4101 150.093C69.2564 148.905 67.7927 144.575 67.9464 142.336C66.761 147.27 63.4171 149.22 60.6752 149.66C59.7485 149.809 59.4846 148.581 60.0394 147.824C61.5208 145.802 61.936 143.232 62 141V132.252C60.5209 132.755 58.8258 132.653 57.579 132.298C56.8142 132.08 56.8645 131.076 57.4224 130.509C60.2034 127.685 61.6783 120.561 61.9254 116.226ZM75.0003 123C75.0003 122.172 74.3288 121.5 73.5003 121.5C72.6719 121.5 72.0003 122.172 72.0003 123C72.0003 124.53 71.9943 126.238 71.661 127.737C71.3267 129.242 70.7371 130.205 69.8295 130.658C69.0885 131.029 68.7882 131.93 69.1587 132.671C69.5292 133.412 70.4302 133.712 71.1711 133.342C73.2636 132.295 74.174 130.258 74.5896 128.388C75.0005 126.539 75.0004 124.528 75.0003 123.062L75.0003 123ZM84.9996 127.5C84.1712 127.5 83.4996 128.172 83.4996 129C83.4996 130.431 83.783 131.822 84.0502 132.824C84.1857 133.332 84.3214 133.756 84.4244 134.057C84.476 134.207 84.5197 134.327 84.5514 134.412C84.5604 134.437 84.5685 134.458 84.5756 134.476C84.5808 134.49 84.5855 134.502 84.5895 134.513L84.601 134.542L84.6044 134.551L84.606 134.555L84.6069 134.557C84.9146 135.326 85.7875 135.7 86.5567 135.393C87.3256 135.085 87.6997 134.213 87.3927 133.444L87.3872 133.43C87.3841 133.422 87.3797 133.41 87.3743 133.396C87.3706 133.386 87.3665 133.375 87.3619 133.363C87.3389 133.301 87.3044 133.207 87.2623 133.084C87.1778 132.837 87.0635 132.48 86.949 132.051C86.7162 131.178 86.4996 130.069 86.4996 129C86.4996 128.172 85.828 127.5 84.9996 127.5ZM91.5109 121.186C91.4081 120.364 91.9912 119.614 92.8133 119.511L96.2034 126.104C96.2039 126.105 96.2044 126.106 96.2049 126.107L96.2059 126.109C96.3993 126.544 96.5591 127.705 95.8993 128.2C95.2366 128.697 94.2964 128.563 93.7993 127.9C93.7598 127.846 93.7986 127.899 93.7986 127.899L93.7978 127.898L93.7962 127.896L93.7926 127.891L93.7837 127.879L93.7598 127.846C93.7412 127.819 93.7173 127.785 93.6888 127.743C93.6318 127.658 93.5563 127.541 93.4673 127.391C93.2894 127.091 93.0576 126.661 92.8126 126.101C92.322 124.98 91.7802 123.34 91.5109 121.186ZM96.2045 126.106L96.2067 126.11L96.2059 126.109C96.261 126.202 96.1384 125.949 96.1896 126.071C95.7912 125.159 94.7152 122.634 94.4877 120.814C94.385 119.992 93.6353 119.409 92.8133 119.511L96.2022 126.101C96.2026 126.102 96.203 126.103 96.2034 126.104L96.2059 126.109C96.2054 126.108 96.2049 126.107 96.2045 126.106Z" fill="#403366"/>
		<path d="M73.607 85.4318C73.3813 85.4368 73.1582 85.5548 73.0453 85.5573C69.2243 86.32 67.4042 80.5976 71.0948 79.0468C71.318 78.9289 71.5436 78.9239 71.7668 78.8059C75.2418 77.7119 86.3187 78.3702 86.3187 78.3702C86.3187 78.3702 77.082 84.3378 73.607 85.4318Z" fill="#B2A1E6"/>
		<path d="M87 77.7297C87 77.4996 87 77.2694 87 77.1543C87.2332 73.1264 93.2973 72.8962 93.8804 76.8091C93.9173 77.0562 93.9861 77.1543 93.9971 77.4996C94.1137 81.1822 90.7318 92 90.7318 92C90.7318 92 87.1166 81.4124 87 77.7297Z" fill="#B2A1E6"/>
	</symbol>
</svg>