<svg width="24" height="24" viewBox="0 0 24 24" fill="none" xmlns="http://www.w3.org/2000/svg">
  <path d="M23 12.4081C23.0169 12.4081 17.6804 9.39631 17.6647 9.30773C17.544 8.66758 17.392 7.61051 16.6558 7.06367C16.0222 6.59715 11.7453 4.67198 11.7369 4.6519C10.9494 3.48695 10.2516 2.26628 9.64913 1C9.07702 1.42143 8.6117 1.96609 8.28921 2.59179C7.96673 3.21749 7.79572 3.90744 7.78945 4.6082C5.68849 4.90289 3.71661 5.77668 2.10422 7.12745C6.28578 6.18967 7.49017 7.05422 7.49017 7.05422C6.12114 7.29291 4.80195 7.75187 3.58617 8.41247C1.80373 9.3715 1 10.5231 1 10.5231C1 10.5231 5.04761 9.3904 8.15391 10.4924C6.70535 10.6923 5.35884 11.3366 4.30784 12.3325C10.7461 13.1132 13.9212 18.5816 15.2571 23C15.7483 15.1411 11.7502 12.1565 11.7502 12.1565C12.9111 12.238 14.3713 13.1214 15.3054 14.436C18.1535 14.1218 19.7392 14.9757 19.7259 14.9757C19.6945 14.9757 21.2658 14.5033 22.3736 14.0037C22.2783 13.8632 21.8776 13.3754 21.6496 13.1025C21.6809 13.1049 22.5571 13.0541 23 12.4081ZM14.1071 8.92978C14.1698 8.91443 15.5649 8.53057 15.9631 8.67821C16.3251 8.81167 16.3324 9.82032 16.3324 9.82032C16.3324 9.82032 15.5057 9.9337 14.1071 8.92978Z" fill="#EFEFEF"/>
</svg>
