<svg width="32" height="32" viewBox="0 0 32 32" fill="none" xmlns="http://www.w3.org/2000/svg">
  <path d="M30.9999 16.5565C31.023 16.5565 23.746 12.4495 23.7246 12.3287C23.56 11.4558 23.3527 10.0143 22.3488 9.26865C21.4849 8.63247 15.6527 6.00725 15.6412 5.97987C14.5674 4.39129 13.6158 2.72674 12.7943 1C12.0141 1.57468 11.3796 2.31739 10.9398 3.17062C10.5001 4.02384 10.2669 4.96469 10.2583 5.92028C7.3934 6.32213 4.70447 7.51365 2.50576 9.35562C8.20788 8.07683 9.85023 9.25576 9.85023 9.25576C7.98337 9.58124 6.18448 10.2071 4.5266 11.1079C2.09599 12.4157 1 13.986 1 13.986C1 13.986 6.51946 12.4415 10.7553 13.9441C8.78002 14.2168 6.94387 15.0953 5.51069 16.4534C14.2902 17.518 18.6198 24.9749 20.4415 31C21.1113 20.2833 15.6593 16.2134 15.6593 16.2134C17.2424 16.3245 19.2336 17.5292 20.5074 19.3218C24.3911 18.8934 26.5534 20.0578 26.5353 20.0578C26.4925 20.0578 28.6352 19.4136 30.1459 18.7323C30.0159 18.5407 29.4695 17.8755 29.1585 17.5035C29.2013 17.5067 30.396 17.4374 30.9999 16.5565ZM18.8733 11.8133C18.9588 11.7924 20.8612 11.269 21.4042 11.4703C21.8979 11.6523 21.9078 13.0277 21.9078 13.0277C21.9078 13.0277 20.7805 13.1823 18.8733 11.8133Z" fill="#EFEFEF"/>
</svg>
